<svg viewBox="0 0 400 300" xmlns="http://www.w3.org/2000/svg">
  <defs>
    <!-- Bamboo texture pattern -->
    <pattern id="bambooTexture" x="0" y="0" width="20" height="20" patternUnits="userSpaceOnUse">
      <rect width="20" height="20" fill="#6B5B3E" opacity="0.1"/>
      <path d="M0,10 Q5,8 10,10 T20,10" stroke="#8B7355" stroke-width="0.5" fill="none" opacity="0.3"/>
      <path d="M10,0 Q12,5 10,10 T10,20" stroke="#8B7355" stroke-width="0.5" fill="none" opacity="0.3"/>
    </pattern>
    
    <!-- Gold gradient for bamboo segments -->
    <linearGradient id="bambooGold" x1="0%" y1="0%" x2="100%" y2="100%">
      <stop offset="0%" style="stop-color:#F2C84B;stop-opacity:0.8"/>
      <stop offset="50%" style="stop-color:#DAA520;stop-opacity:0.6"/>
      <stop offset="100%" style="stop-color:#B8860B;stop-opacity:0.8"/>
    </linearGradient>
  </defs>
  
  <!-- Frame background -->
  <rect x="10" y="10" width="380" height="280" fill="none" stroke="url(#bambooGold)" stroke-width="2" rx="8"/>
  
  <!-- Bamboo segments - Top -->
  <g stroke="url(#bambooGold)" stroke-width="8" fill="url(#bambooTexture)" opacity="0.8">
    <!-- Top horizontal bamboo -->
    <rect x="5" y="5" width="90" height="10" rx="5"/>
    <rect x="105" y="5" width="90" height="10" rx="5"/>
    <rect x="205" y="5" width="90" height="10" rx="5"/>
    <rect x="305" y="5" width="90" height="10" rx="5"/>
    
    <!-- Bamboo joints (nodes) -->
    <circle cx="100" cy="10" r="3" fill="#F2C84B"/>
    <circle cx="200" cy="10" r="3" fill="#F2C84B"/>
    <circle cx="300" cy="10" r="3" fill="#F2C84B"/>
  </g>
  
  <!-- Right vertical bamboo -->
  <g stroke="url(#bambooGold)" stroke-width="8" fill="url(#bambooTexture)" opacity="0.8">
    <rect x="385" y="5" width="10" height="70" rx="5"/>
    <rect x="385" y="85" width="10" height="70" rx="5"/>
    <rect x="385" y="165" width="10" height="70" rx="5"/>
    <rect x="385" y="245" width="10" height="50" rx="5"/>
    
    <!-- Bamboo joints -->
    <circle cx="390" cy="80" r="3" fill="#F2C84B"/>
    <circle cx="390" cy="160" r="3" fill="#F2C84B"/>
    <circle cx="390" cy="240" r="3" fill="#F2C84B"/>
  </g>
  
  <!-- Bottom horizontal bamboo -->
  <g stroke="url(#bambooGold)" stroke-width="8" fill="url(#bambooTexture)" opacity="0.8">
    <rect x="305" y="285" width="90" height="10" rx="5"/>
    <rect x="205" y="285" width="90" height="10" rx="5"/>
    <rect x="105" y="285" width="90" height="10" rx="5"/>
    <rect x="5" y="285" width="90" height="10" rx="5"/>
    
    <!-- Bamboo joints -->
    <circle cx="300" cy="290" r="3" fill="#F2C84B"/>
    <circle cx="200" cy="290" r="3" fill="#F2C84B"/>
    <circle cx="100" cy="290" r="3" fill="#F2C84B"/>
  </g>
  
  <!-- Left vertical bamboo -->
  <g stroke="url(#bambooGold)" stroke-width="8" fill="url(#bambooTexture)" opacity="0.8">
    <rect x="5" y="245" width="10" height="50" rx="5"/>
    <rect x="5" y="165" width="10" height="70" rx="5"/>
    <rect x="5" y="85" width="10" height="70" rx="5"/>
    <rect x="5" y="5" width="10" height="70" rx="5"/>
    
    <!-- Bamboo joints -->
    <circle cx="10" cy="240" r="3" fill="#F2C84B"/>
    <circle cx="10" cy="160" r="3" fill="#F2C84B"/>
    <circle cx="10" cy="80" r="3" fill="#F2C84B"/>
  </g>
  
  <!-- Corner decorative elements -->
  <g fill="#F2C84B" opacity="0.6">
    <!-- Top corners -->
    <circle cx="20" cy="20" r="2"/>
    <circle cx="380" cy="20" r="2"/>
    <!-- Bottom corners -->
    <circle cx="20" cy="280" r="2"/>
    <circle cx="380" cy="280" r="2"/>
  </g>
</svg>