<svg width="200" height="100" viewBox="0 0 200 100" xmlns="http://www.w3.org/2000/svg">
  <defs>
    <!-- Parchment paper texture -->
    <pattern id="parchment" x="0" y="0" width="50" height="50" patternUnits="userSpaceOnUse">
      <rect width="50" height="50" fill="#F1EDE3" opacity="0.05"/>
      <!-- Paper fiber texture -->
      <path d="M0,25 Q12.5,20 25,25 T50,25" stroke="#CFC7B6" stroke-width="0.2" opacity="0.1"/>
      <path d="M25,0 Q30,12.5 25,25 T25,50" stroke="#CFC7B6" stroke-width="0.2" opacity="0.1"/>
      <circle cx="12.5" cy="12.5" r="0.5" fill="#DAA520" opacity="0.05"/>
      <circle cx="37.5" cy="37.5" r="0.5" fill="#B8860B" opacity="0.05"/>
    </pattern>
    
    <!-- Subtle gold edge highlighting -->
    <linearGradient id="goldEdge" x1="0%" y1="0%" x2="0%" y2="100%">
      <stop offset="0%" style="stop-color:#F2C84B;stop-opacity:0.1"/>
      <stop offset="50%" style="stop-color:#DAA520;stop-opacity:0.05"/>
      <stop offset="100%" style="stop-color:#B8860B;stop-opacity:0.1"/>
    </linearGradient>
  </defs>
  
  <!-- Scroll background with texture -->
  <rect width="200" height="100" fill="url(#parchment)" rx="8"/>
  
  <!-- Subtle border glow -->
  <rect x="1" y="1" width="198" height="98" fill="none" stroke="url(#goldEdge)" stroke-width="1" rx="7" opacity="0.3"/>
  
  <!-- Corner decorative elements -->
  <g fill="#F2C84B" opacity="0.08">
    <path d="M8,8 Q12,8 12,12 Q12,8 16,8" stroke="#F2C84B" stroke-width="0.5" fill="none"/>
    <path d="M184,8 Q188,8 192,12 Q188,8 192,8" stroke="#F2C84B" stroke-width="0.5" fill="none"/>
    <path d="M8,92 Q12,92 12,88 Q12,92 16,92" stroke="#F2C84B" stroke-width="0.5" fill="none"/>
    <path d="M184,92 Q188,92 192,88 Q188,92 192,92" stroke="#F2C84B" stroke-width="0.5" fill="none"/>
  </g>
</svg>